HIERARCHY
ROOT hips
{
  OFFSET 0 10.680822821525009 1.3929502295107734
  CHANNELS 6 Xposition Yposition Zposition Yrotation Xrotation Zrotation
  JOINT spine
  {
    OFFSET -7.042017322922631e-31 0.6058489940359625 0
    CHANNELS 3 Yrotation Xrotation Zrotation
    JOINT chest
    {
      OFFSET 0 1.2699794144455032 0
      CHANNELS 3 Yrotation Xrotation Zrotation
      JOINT upperChest
      {
        OFFSET 0 1.217799211677689 0
        CHANNELS 3 Yrotation Xrotation Zrotation
        JOINT neck
        {
          OFFSET 0 1.5248826104153006 0
          CHANNELS 3 Yrotation Xrotation Zrotation
          JOINT head
          {
            OFFSET 0 0.8197772727844447 0
            CHANNELS 3 Yrotation Xrotation Zrotation
            JOINT leftEye
            {
              OFFSET 0.2793952361220866 0.6769952096623495 0.1830357412467788
              CHANNELS 3 Yrotation Xrotation Zrotation
              End Site
              {
                OFFSET 0.2793952361220866 0.6769952096623495 0.1830357412467788
              }
            }
            JOINT rightEye
            {
              OFFSET -0.27939522230689573 0.676995205357064 0.18303631459760622
              CHANNELS 3 Yrotation Xrotation Zrotation
              End Site
              {
                OFFSET -0.27939522230689573 0.676995205357064 0.18303631459760622
              }
            }
          }
        }
        JOINT leftShoulder
        {
          OFFSET 0.41486978509200423 1.1670505408695453 0
          CHANNELS 3 Yrotation Xrotation Zrotation
          JOINT leftUpperArm
          {
            OFFSET 0.9737926108153417 0 0
            CHANNELS 3 Yrotation Xrotation Zrotation
            JOINT leftLowerArm
            {
              OFFSET 2.5269332222665284 0 0
              CHANNELS 3 Yrotation Xrotation Zrotation
              JOINT leftHand
              {
                OFFSET 2.4263782738425914 0 0
                CHANNELS 3 Yrotation Xrotation Zrotation
                JOINT leftIndexProximal
                {
                  OFFSET 0.724320348022514 0.08170607082582437 0.20360061616140124
                  CHANNELS 3 Yrotation Xrotation Zrotation
                  JOINT leftIndexIntermediate
                  {
                    OFFSET 0.36548960630744587 -0.010566596513783999 -0.01414783573280308
                    CHANNELS 3 Yrotation Xrotation Zrotation
                    JOINT leftIndexDistal
                    {
                      OFFSET 0.22502819650693362 -0.007863819831430696 -0.007567681939621526
                      CHANNELS 3 Yrotation Xrotation Zrotation
                      End Site
                      {
                        OFFSET 0.22502819650693362 -0.007863819831430696 -0.007567681939621526
                      }
                    }
                  }
                }
                JOINT leftLittleProximal
                {
                  OFFSET 0.6720322998298205 0.08170601055037707 -0.3230036039466837
                  CHANNELS 3 Yrotation Xrotation Zrotation
                  JOINT leftLittleIntermediate
                  {
                    OFFSET 0.34583592281688713 5.476543019078406e-8 1.3869203337180114e-7
                    CHANNELS 3 Yrotation Xrotation Zrotation
                    JOINT leftLittleDistal
                    {
                      OFFSET 0.19925728062053938 0.003098047439490381 0.0038303983709246925
                      CHANNELS 3 Yrotation Xrotation Zrotation
                      End Site
                      {
                        OFFSET 0.19925728062053938 0.003098047439490381 0.0038303983709246925
                      }
                    }
                  }
                }
                JOINT leftMiddleProximal
                {
                  OFFSET 0.7300436596551069 0.0817073395107144 0.022661722987926763
                  CHANNELS 3 Yrotation Xrotation Zrotation
                  JOINT leftMiddleIntermediate
                  {
                    OFFSET 0.40758254347686607 -0.0000012383587111308714 2.408460318820138e-7
                    CHANNELS 3 Yrotation Xrotation Zrotation
                    JOINT leftMiddleDistal
                    {
                      OFFSET 0.2514490105498507 0.0000013869132886590307 9.738618134136345e-8
                      CHANNELS 3 Yrotation Xrotation Zrotation
                      End Site
                      {
                        OFFSET 0.2514490105498507 0.0000013869132886590307 9.738618134136345e-8
                      }
                    }
                  }
                }
                JOINT leftRingProximal
                {
                  OFFSET 0.7217261161191838 0.08170601902187746 -0.15043395722184966
                  CHANNELS 3 Yrotation Xrotation Zrotation
                  JOINT leftRingIntermediate
                  {
                    OFFSET 0.37808807487521556 0.0000013754022405443322 2.2046919317952884e-7
                    CHANNELS 3 Yrotation Xrotation Zrotation
                    JOINT leftRingDistal
                    {
                      OFFSET 0.21812105442344254 -0.002713483731960231 -0.004991354517454624
                      CHANNELS 3 Yrotation Xrotation Zrotation
                      End Site
                      {
                        OFFSET 0.21812105442344254 -0.002713483731960231 -0.004991354517454624
                      }
                    }
                  }
                }
                JOINT leftThumbProximal
                {
                  OFFSET 0.10793587079521427 -0.1652791240518252 -0.07775251827190094
                  CHANNELS 3 Yrotation Xrotation Zrotation
                  JOINT leftThumbIntermediate
                  {
                    OFFSET 0.40355819082296684 -0.017484006740276614 0.3177776014416309
                    CHANNELS 3 Yrotation Xrotation Zrotation
                    JOINT leftThumbDistal
                    {
                      OFFSET 0.2318764658022603 -0.018510186824293617 0.21396001800186287
                      CHANNELS 3 Yrotation Xrotation Zrotation
                      End Site
                      {
                        OFFSET 0.2318764658022603 -0.018510186824293617 0.21396001800186287
                      }
                    }
                  }
                }
              }
            }
          }
        }
        JOINT rightShoulder
        {
          OFFSET -0.4148697850920044 1.1670505408695453 0
          CHANNELS 3 Yrotation Xrotation Zrotation
          JOINT rightUpperArm
          {
            OFFSET -0.9737926108153414 0 0
            CHANNELS 3 Yrotation Xrotation Zrotation
            JOINT rightLowerArm
            {
              OFFSET -2.5269332222665293 0 0
              CHANNELS 3 Yrotation Xrotation Zrotation
              JOINT rightHand
              {
                OFFSET -2.42637827384259 0 0
                CHANNELS 3 Yrotation Xrotation Zrotation
                JOINT rightIndexProximal
                {
                  OFFSET -0.724320348022514 0.08170607082582437 0.20360061616140124
                  CHANNELS 3 Yrotation Xrotation Zrotation
                  JOINT rightIndexIntermediate
                  {
                    OFFSET -0.36548960630744587 -0.010566596513783999 -0.01414783573280308
                    CHANNELS 3 Yrotation Xrotation Zrotation
                    JOINT rightIndexDistal
                    {
                      OFFSET -0.22502819650693362 -0.007863819831430696 -0.007567681939621526
                      CHANNELS 3 Yrotation Xrotation Zrotation
                      End Site
                      {
                        OFFSET -0.22502819650693362 -0.007863819831430696 -0.007567681939621526
                      }
                    }
                  }
                }
                JOINT rightLittleProximal
                {
                  OFFSET -0.6720322998298205 0.08170601055037707 -0.3230036039466837
                  CHANNELS 3 Yrotation Xrotation Zrotation
                  JOINT rightLittleIntermediate
                  {
                    OFFSET -0.34583592281688713 5.476543019078406e-8 1.3869203337180114e-7
                    CHANNELS 3 Yrotation Xrotation Zrotation
                    JOINT rightLittleDistal
                    {
                      OFFSET -0.19925728062053938 0.003098047439490381 0.0038303983709246925
                      CHANNELS 3 Yrotation Xrotation Zrotation
                      End Site
                      {
                        OFFSET -0.19925728062053938 0.003098047439490381 0.0038303983709246925
                      }
                    }
                  }
                }
                JOINT rightMiddleProximal
                {
                  OFFSET -0.7300436596551069 0.0817073395107144 0.022661722987926763
                  CHANNELS 3 Yrotation Xrotation Zrotation
                  JOINT rightMiddleIntermediate
                  {
                    OFFSET -0.40758254347686607 -0.0000012383587111308714 2.408460318820138e-7
                    CHANNELS 3 Yrotation Xrotation Zrotation
                    JOINT rightMiddleDistal
                    {
                      OFFSET -0.2514490105498507 0.0000013869132886590307 9.738618134136345e-8
                      CHANNELS 3 Yrotation Xrotation Zrotation
                      End Site
                      {
                        OFFSET -0.2514490105498507 0.0000013869132886590307 9.738618134136345e-8
                      }
                    }
                  }
                }
                JOINT rightRingProximal
                {
                  OFFSET -0.7217261161191838 0.08170601902187746 -0.15043395722184966
                  CHANNELS 3 Yrotation Xrotation Zrotation
                  JOINT rightRingIntermediate
                  {
                    OFFSET -0.37808807487521556 0.0000013754022405443322 2.2046919317952884e-7
                    CHANNELS 3 Yrotation Xrotation Zrotation
                    JOINT rightRingDistal
                    {
                      OFFSET -0.21812105442344254 -0.002713483731960231 -0.004991354517454624
                      CHANNELS 3 Yrotation Xrotation Zrotation
                      End Site
                      {
                        OFFSET -0.21812105442344254 -0.002713483731960231 -0.004991354517454624
                      }
                    }
                  }
                }
                JOINT rightThumbProximal
                {
                  OFFSET -0.10793587079521427 -0.1652791240518252 -0.07775251827190094
                  CHANNELS 3 Yrotation Xrotation Zrotation
                  JOINT rightThumbIntermediate
                  {
                    OFFSET -0.40355819082296684 -0.017484006740276614 0.3177776014416309
                    CHANNELS 3 Yrotation Xrotation Zrotation
                    JOINT rightThumbDistal
                    {
                      OFFSET -0.2318764658022603 -0.018510186824293617 0.21396001800186287
                      CHANNELS 3 Yrotation Xrotation Zrotation
                      End Site
                      {
                        OFFSET -0.2318764658022603 -0.018510186824293617 0.21396001800186287
                      }
                    }
                  }
                }
              }
            }
          }
        }
      }
    }
  }
  JOINT leftUpperLeg
  {
    OFFSET 0.8486251390888677 -0.4421577294694363 0
    CHANNELS 3 Yrotation Xrotation Zrotation
    JOINT leftLowerLeg
    {
      OFFSET 0 -4.10147812638609 0
      CHANNELS 3 Yrotation Xrotation Zrotation
      JOINT leftFoot
      {
        OFFSET -0.0002543926476658853 -4.77292286812444 0.007402811231737388
        CHANNELS 3 Yrotation Xrotation Zrotation
        JOINT leftToes
        {
          OFFSET 0 -0.7027875951174846 1.2062924140498823
          CHANNELS 3 Yrotation Xrotation Zrotation
          End Site
          {
            OFFSET 0 -0.7027875951174846 1.2062924140498823
          }
        }
      }
    }
  }
  JOINT rightUpperLeg
  {
    OFFSET -0.8486251390888677 -0.4421577294694363 0
    CHANNELS 3 Yrotation Xrotation Zrotation
    JOINT rightLowerLeg
    {
      OFFSET 0 -4.10147812638609 0
      CHANNELS 3 Yrotation Xrotation Zrotation
      JOINT rightFoot
      {
        OFFSET 0.0002543926476658853 -4.77292286812444 0.007402811231737388
        CHANNELS 3 Yrotation Xrotation Zrotation
        JOINT rightToes
        {
          OFFSET 0 -0.7027875951174846 1.2062924140498823
          CHANNELS 3 Yrotation Xrotation Zrotation
          End Site
          {
            OFFSET 0 -0.7027875951174846 1.2062924140498823
          }
        }
      }
    }
  }
}
MOTION
Frames: 4
Frame Time: 0.03333333333333333
0.044521186500787735 0.2324385920492098 -0.17691035568714142 0.5089247362996803 -1.0904692474363031 9.146260178436084 -0.05999574086857821 0.7350754116795124 -5.954962269636763 0.0591042634809896 2.280480156177579 -11.90782957462823 0 0 0 0.29537125924219376 0.18336754686069365 0.9339076163214457 1.277905824965168 -4.468868926382463 1.6797416201185467 0 0 0 0 0 0 -6.695331787448372 2.3354091274793074 -10.035447134126722 10.029769929582743 -20.0733100187346 -46.736801363432505 -7.672330217542651 -1.0410548442806808 0.16907398444808436 -14.066535392770872 16.38901397145936 16.16245082188115 -0.005099646671500497 0.00000933178366829293 0.0001723439342601588 0.012001729423554543 -0.000006287968207916863 -0.00018025806786464734 -0.007591613478277832 0.000006543889581139143 0.00009311802334753815 4.294771857666524 -0.018060738017061692 0.4537163588204508 -4.084634637271733 -0.014280608356298508 -0.4570560857929807 -0.00770123917977269 -0.0000016738814519775835 0.00008883464242339052 -0.0053266383183565615 0.000006465293138739313 0.016055952668794896 0.004123872612856187 0.000015754132296167892 -0.01601701758970724 0.002404012100818039 -0.000011674638259976386 -0.00004830243033066573 0.0006998693780137815 0.000009325414823821018 0.00009742944607731142 0.000040591975987464314 0.000015917020663846746 -0.000032286791098374385 -0.000013763203179322083 -0.000018980068454937426 -0.000026778370837998466 4.419822893250967 -1.3347027486983793 6.119701013123849 7.113050483177667 3.5653260699495597 0.948059632199626 0.9579100788696713 -0.8169576336955746 2.369671401949198 -4.114567992002283 0.5298981655150458 8.84383247291392 7.706216729604336 -11.437892996062443 71.3772802994786 36.956107111480954 -4.558242508486575 -2.0174613515177238 30.011586337972517 43.1975561679475 7.739998324230635 -0.01876030394971529 5.337493893129789e-7 0.0001083987946573049 0.029279908005637467 -4.855385923402297e-7 -0.00024254308046372445 -0.01010511969744002 -2.614662759206292e-7 0.00013990159093454997 0.059625407471112314 0.0000017014534515112536 -0.0015041995038326355 0.09699853069051036 0.000013090777127676682 -0.0012580809076508236 -0.0568994062356907 -0.000008175254599467933 0.0007389731906778465 -0.057457073549675455 7.312460594806431e-7 0.0006082649477768139 0.09736185754225808 -0.0000011173532862580872 -0.0010155261285398239 -0.03689390529500463 0.0000022594479292722174 0.0004673824473284919 0.017935343531938208 6.560183588216704e-7 -0.0004656261248815098 -0.025397019256279078 0.000007148703859366249 0.00039837782342366134 -0.012902800753207698 -0.000004871293175030612 0.00017823207509168036 -4.423068656806894 -1.6252390453754122 -6.563194153807371 -7.682429668857156 4.20283299724978 -0.5330711519575395 0.8479126884827204 -1.554828644763507 -1.9643642817799487 4.673873937592562 -1.865205005149284 -14.548785362453522 -2.8123872885580443 12.525914030013324 -0.06599334490916742 -0.7995607029585827 18.98983017446685 -5.620437822524827 -1.0569583125329949 -19.305924021550073 11.064845445053269 2.5541584473219388 -31.720877216312672 -7.83826512024967 -14.78341503527477 63.70786700705803 -15.778704888991468 -13.5698235425153 20.133525884385854 -13.530718179678061 -0.00002399234517169843 -1.7157285331249326 -0.000006240759155703386
0.04853981360793114 0.28780796918544027 -0.26576340198516846 4.5723050683429545 -0.8431016456308059 7.074876453389348 -1.0426161606785969 0.754101122859147 -5.030821293265389 -3.576935390975137 2.3155500056365574 -9.10540777278085 0 0 0 0.40949819805028326 0.07783172373657694 1.0140280082624247 2.119401523363502 -3.9891180802215143 0.05997814635840455 0 0 0 0 0 0 -6.829730470894826 2.3998525511533715 -10.21422479446712 -0.1096953989280783 -25.558946582079116 -44.664423404432235 -8.557329718882078 -1.1594234831890764 0.1974692577742494 -17.81614715227938 15.746557955712646 12.730695245060376 -0.005099646671500497 0.00000933178366829293 0.0001723439342601588 0.012001729423554543 -0.000006287968207916863 -0.00018025806786464734 -0.007591613478277832 0.000006543889581139143 0.00009311802334753815 4.294771857666524 -0.018060738017061692 0.4537163588204508 -4.084634637271733 -0.014280608356298508 -0.4570560857929807 -0.00770123917977269 -0.0000016738814519775835 0.00008883464242339052 -0.0053266383183565615 0.000006465293138739313 0.016055952668794896 0.004123872612856187 0.000015754132296167892 -0.01601701758970724 0.002404012100818039 -0.000011674638259976386 -0.00004830243033066573 0.0006998693780137815 0.000009325414823821018 0.00009742944607731142 0.000040591975987464314 0.000015917020663846746 -0.000032286791098374385 -0.000013763203179322083 -0.000018980068454937426 -0.000026778370837998466 4.419822893250967 -1.3347027486983793 6.119701013123849 7.113050483177667 3.5653260699495597 0.948059632199626 0.9579100788696713 -0.8169576336955746 2.369671401949198 -5.197557116012052 0.3959406530904001 9.164604197488694 1.6050524345232953 -7.784438098355157 71.34044567381142 22.714920991481566 -2.9698759281521503 -0.8936237123134563 22.859024425712196 48.84803601235357 -4.18225129786033 -0.018724778963587256 0.000015594865587938162 -0.0005179995414388539 0.029279908005637467 -4.855385923402297e-7 -0.00024254308046372445 -0.01010511969744002 -2.614662759206292e-7 0.00013990159093454997 0.05966318026418242 0.00001601986015913957 -0.0021364536978562203 0.09699853069051036 0.000013090777127676682 -0.0012580809076508236 -0.0568994062356907 -0.000008175254599467933 0.0007389731906778465 -0.057421548580627015 0.000015369558961857775 -0.000018143473264408276 0.09736185754225808 -0.0000011173532862580872 -0.0010155261285398239 -0.03689390529500463 0.0000022594479292722174 0.0004673824473284919 0.017970868518379732 0.000016118117213025087 -0.0010920147423161613 -0.025397019256279078 0.000007148703859366249 0.00039837782342366134 -0.012902800753207698 -0.000004871293175030612 0.00017823207509168036 -4.422388818692706 -1.625363853261236 -6.5637513803282 -7.682429668857156 4.20283299724978 -0.5330711519575395 0.8479126884827204 -1.554828644763507 -1.9643642817799487 5.966289445020064 2.435999359226045 -11.528165149802001 -5.9755722319046525 10.28979139957828 -0.24877781596551507 -0.41874494439230986 15.198181074905378 -3.9861704161707285 -0.2186588919560021 -15.853786194051231 6.3665591483483785 0.3347853966153804 -33.73905555667147 -6.027838091172578 -11.449847715339828 52.60845352630421 -11.531198235441488 -10.375246398861568 18.82815511600606 -9.978616746098158 2.9198677595448576e-7 -1.7244198096739636 -0.000010332306908930694
0.04761612415313721 0.29592087659510824 -0.2877158522605896 5.9960310368953795 -0.7671357131153793 6.482896340822377 -1.365314705677507 0.781806965752825 -4.6923149502416726 -4.817049617595903 2.4337801054023323 -8.197998184880745 0 0 0 0.42436350061865546 -0.015754958767195053 1.0527134852373252 2.2977720137265862 -4.0091725351810945 -0.45644589810603997 0 0 0 0 0 0 -6.8247261694272146 2.4026808119636245 -10.252169506787064 -3.3673716104169857 -27.058154878490324 -44.06827528052801 -9.22965153268011 -1.2489996491576556 0.22025923932928404 -19.345380580720366 15.161631281029912 10.441126022476777 -0.005099646671500497 0.00000933178366829293 0.0001723439342601588 0.012001729423554543 -0.000006287968207916863 -0.00018025806786464734 -0.007591613478277832 0.000006543889581139143 0.00009311802334753815 4.294771857666524 -0.018060738017061692 0.4537163588204508 -4.084634637271733 -0.014280608356298508 -0.4570560857929807 -0.00770123917977269 -0.0000016738814519775835 0.00008883464242339052 -0.0053266383183565615 0.000006465293138739313 0.016055952668794896 0.004123872612856187 0.000015754132296167892 -0.01601701758970724 0.002404012100818039 -0.000011674638259976386 -0.00004830243033066573 0.0006998693780137815 0.000009325414823821018 0.00009742944607731142 0.000040591975987464314 0.000015917020663846746 -0.000032286791098374385 -0.000013763203179322083 -0.000018980068454937426 -0.000026778370837998466 4.419822893250967 -1.3347027486983793 6.119701013123849 7.113050483177667 3.5653260699495597 0.948059632199626 0.9579100788696713 -0.8169576336955746 2.369671401949198 -5.3328656250292985 0.3847058250868508 9.264818603848369 -0.9978047323280101 -6.77647901959826 71.07181556744926 18.500008748114695 -2.450167163678543 -0.63997100291035 20.594157776358962 50.25184000161152 -8.042265168131394 -0.01874006851474411 -8.061634906693298e-7 -0.0003290823463922847 0.029279908005637467 -4.855385923402297e-7 -0.00024254308046372445 -0.01010511969744002 -2.614662759206292e-7 0.00013990159093454997 0.05964460402744157 0.00000228193938709103 -0.0019434435328195172 0.09699853069051036 0.000013090777127676682 -0.0012580809076508236 -0.0568994062356907 -0.000008175254599467933 0.0007389731906778465 -0.05743683645691087 -9.039560817936009e-7 0.00017078477078466797 0.09736185754225808 -0.0000011173532862580872 -0.0010155261285398239 -0.03689390529500463 0.0000022594479292722174 0.0004673824473284919 0.017955578967091417 -4.0384454412502965e-7 -0.0009031081517438407 -0.025397019256279078 0.000007148703859366249 0.00039837782342366134 -0.012902800753207698 -0.000004871293175030612 0.00017823207509168036 -4.422579773522133 -1.625336201214011 -6.563595455239822 -7.682429668857156 4.20283299724978 -0.5330711519575395 0.8479126884827204 -1.554828644763507 -1.9643642817799487 6.768719705419819 3.798223518057653 -10.279907082862545 -6.844178200498599 9.357285236154768 -0.47569800416641606 -0.4143099212577192 15.228026454251387 -3.880145052941995 -0.19986661523760468 -16.305371044983232 6.147054843597965 -0.44303796901031156 -33.59712357665972 -5.392000785337296 -10.779817799758655 47.59898831864301 -10.496219021434097 -9.50438848267134 18.798992850473695 -9.29711390691223 -0.000002982716596061508 -1.7274240012029978 -0.000006439776729546182
0.036643821746110916 0.28508904370936605 -0.31819427013397217 8.84488868608073 -0.6369679611743242 5.5141136443045236 -1.9888227730791608 0.8431211244509794 -4.071767409665802 -7.2650296816506845 2.758970118978022 -6.476527377632532 0 0 0 0.4181557832540324 -0.2610621526061629 1.1783709000779479 2.525463408814811 -4.316445170505559 -1.4144165514388352 0 0 0 0 0 0 -6.739181363903975 2.379438573150659 -10.29619164218677 -9.297606397616363 -29.455078887335848 -43.19882086520685 -11.233724199305131 -1.514323794797809 0.294467577169042 -23.095464517989775 13.369206782780402 4.764806847977322 -0.005099646671500497 0.00000933178366829293 0.0001723439342601588 0.012001729423554543 -0.000006287968207916863 -0.00018025806786464734 -0.007591613478277832 0.000006543889581139143 0.00009311802334753815 4.294771857666524 -0.018060738017061692 0.4537163588204508 -4.084634637271733 -0.014280608356298508 -0.4570560857929807 -0.00770123917977269 -0.0000016738814519775835 0.00008883464242339052 -0.0053266383183565615 0.000006465293138739313 0.016055952668794896 0.004123872612856187 0.000015754132296167892 -0.01601701758970724 0.002404012100818039 -0.000011674638259976386 -0.00004830243033066573 0.0006998693780137815 0.000009325414823821018 0.00009742944607731142 0.000040591975987464314 0.000015917020663846746 -0.000032286791098374385 -0.000013763203179322083 -0.000018980068454937426 -0.000026778370837998466 4.419822893250967 -1.3347027486983793 6.119701013123849 7.113050483177667 3.5653260699495597 0.948059632199626 0.9579100788696713 -0.8169576336955746 2.369671401949198 -5.296267617512002 0.4032445974643747 9.453068636741378 -6.747652932055978 -5.157895876996724 70.10139065088892 11.662982795118626 -1.5707681244390628 -0.31160240585937593 16.68570938058314 52.01321707220007 -14.839367916011252 -0.018792697320925176 -7.775262343173064e-7 0.00017221010221871798 0.029279908005637467 -4.855385923402297e-7 -0.00024254308046372445 -0.01010511969744002 -2.614662759206292e-7 0.00013990159093454997 0.059600127780859866 7.890950566934746e-7 -0.0014455173649907706 0.09699853069051036 0.000013090777127676682 -0.0012580809076508236 -0.0568994062356907 -0.000008175254599467933 0.0007389731906778465 -0.05748947024033695 -5.369799677584724e-7 0.0006720771281766258 0.09736185754225808 -0.0000011173532862580872 -0.0010155261285398239 -0.03689390529500463 0.0000022594479292722174 0.0004673824473284919 0.017902948492891285 -6.961170111349408e-7 -0.00040181571622445683 -0.025397019256279078 0.000007148703859366249 0.00039837782342366134 -0.012902800753207698 -0.000004871293175030612 0.00017823207509168036 -4.423160727915036 -1.6252386183167915 -6.563159822520699 -7.682429668857156 4.20283299724978 -0.5330711519575395 0.8479126884827204 -1.554828644763507 -1.9643642817799487 8.564544372579453 5.9356545979096715 -7.7553024080141775 -8.193790466544057 8.625860429028343 -0.8289410870574312 -0.39759812396376193 14.340340774896278 -3.975441852408311 -0.14809885105660173 -17.08968650610167 5.440296696323621 -1.8476136383881354 -32.675075237772916 -4.337228393892135 -9.776266613461162 36.980927993043984 -8.410215651691644 -8.258721019489467 19.922406328483163 -10.736698435014425 9.092649636356957e-7 -1.7334850364107672 -0.0000068018135749846124
